<svg version="1.0" xmlns="http://www.w3.org/2000/svg" width="512px" height="512px"
    viewBox="0 0 512.000000 512.000000">

    <g transform="translate(0.000000,512.000000) scale(0.100000,-0.100000)" fill="#000000" stroke="none">
        <path d="M2405 4794 c-393 -41 -742 -164 -1054 -371 -540 -359 -894 -929 -982
-1583 -17 -122 -17 -439 -1 -555 64 -453 228 -828 510 -1166 569 -680 1509
-961 2359 -703 502 152 948 487 1235 929 87 133 191 351 244 510 59 175 64
256 22 347 -49 107 -148 176 -262 185 -113 10 -221 -39 -285 -127 -17 -23 -47
-96 -70 -168 -188 -581 -639 -985 -1233 -1104 -151 -30 -423 -32 -573 -4 -506
94 -926 408 -1154 865 -375 747 -105 1659 617 2088 150 90 332 158 515 195 91
18 146 22 292 23 181 0 245 -7 414 -47 100 -23 154 -19 238 21 150 71 220 263
150 413 -63 135 -165 187 -459 233 -99 15 -438 28 -523 19z" />
    </g>
</svg>